<?xml version="1.0" encoding="UTF-8" standalone="no"?>
<!DOCTYPE svg PUBLIC "-//W3C//DTD SVG 1.1//EN" "http://www.w3.org/Graphics/SVG/1.1/DTD/svg11.dtd">
<svg width="100%" height="100%" viewBox="0 0 1024 1024" version="1.1" xmlns="http://www.w3.org/2000/svg" xmlns:xlink="http://www.w3.org/1999/xlink" xml:space="preserve" xmlns:serif="http://www.serif.com/" style="fill-rule:evenodd;clip-rule:evenodd;stroke-miterlimit:10;">
    <path d="M1024,228L1024,796C1024,921.837 921.837,1024 796,1024L228,1024C102.163,1024 0,921.837 0,796L0,228C0,102.163 102.163,0 228,0L796,0C921.837,0 1024,102.163 1024,228Z" style="fill:url(#_Linear1);"/>
    <g transform="matrix(1.045238,0,0,0.888288,38.142857,78.693694)">
        <path d="M660,248.012L660,766.988C660,776.929 653.141,785 644.692,785L255.308,785C246.859,785 240,776.929 240,766.988L240,248.012C240,238.071 246.859,230 255.308,230L644.692,230C653.141,230 660,238.071 660,248.012Z" style="fill:rgb(240,240,236);"/>
    </g>
    <g transform="matrix(3.1,0,0,3.1,115,177)">
        <path d="M191.1,195.3L63.3,195.3C56.73,195.3 53.35,189.67 53.35,185.05L53.35,32.05C53.35,25 57.93,20.3 63.73,20.3L183.43,20.3C190.97,20.3 193.47,25.35 193.92,30.88C199.81,33.32 202.5,38.36 202.5,43.95L202.5,183.25C202.5,190.68 197.84,195.28 191.13,195.28L191.1,195.3ZM58.832,185.69C58.832,185.69 58.63,184.88 58.83,185.68C59.56,188.86 61.24,190.36 63.64,190.36L188.14,190.36C195.11,190.36 197.25,184.87 197.25,179.82L197.25,42.72C197.25,39.7 196.41,38 194.87,36.8L194.87,175.1C194.87,182.54 188.95,185.69 184.7,185.69L58.832,185.69Z" style="fill:url(#_Linear2);fill-rule:nonzero;stroke:rgb(9,58,107);stroke-width:0.71px;"/>
        <path d="M183,20.36L74.8,20.36L74.8,183.16L183,183.16C190.1,183.16 193.82,176.86 193.82,171.23L193.82,32.43C193.82,25.15 189.35,20.28 183,20.28L183,20.36Z" style="fill:url(#_Linear3);fill-rule:nonzero;stroke:rgb(9,58,107);stroke-width:0.71px;"/>
        <path d="M63.12,20.7C57.76,21.49 54.14,25.79 54.14,32.11L54.14,183.21L70.86,183.21L70.86,20.41C68.49,20.41 65.52,20.38 63.12,20.75L63.12,20.7Z" style="fill:url(#_Linear4);fill-rule:nonzero;stroke:rgb(9,58,107);stroke-width:0.71px;"/>
        <path d="M71.57,20.36L71.57,182.86" style="fill:none;fill-rule:nonzero;stroke:url(#_Linear5);stroke-width:2.14px;"/>
    </g>
    <defs>
        <linearGradient id="_Linear1" x1="0" y1="0" x2="1" y2="0" gradientUnits="userSpaceOnUse" gradientTransform="matrix(0,1024,-1024,0,512,0)"><stop offset="0" style="stop-color:rgb(11,59,106);stop-opacity:1"/><stop offset="1" style="stop-color:rgb(49,130,201);stop-opacity:1"/></linearGradient>
        <linearGradient id="_Linear2" x1="0" y1="0" x2="1" y2="0" gradientUnits="userSpaceOnUse" gradientTransform="matrix(0,-175.6,175.6,0,128.1,195.6)"><stop offset="0" style="stop-color:rgb(11,59,106);stop-opacity:1"/><stop offset="1" style="stop-color:rgb(46,105,167);stop-opacity:1"/></linearGradient>
        <linearGradient id="_Linear3" x1="0" y1="0" x2="1" y2="0" gradientUnits="userSpaceOnUse" gradientTransform="matrix(0,163.5,-163.5,0,134.3,20)"><stop offset="0" style="stop-color:rgb(49,130,201);stop-opacity:1"/><stop offset="1" style="stop-color:rgb(16,73,131);stop-opacity:1"/></linearGradient>
        <linearGradient id="_Linear4" x1="0" y1="0" x2="1" y2="0" gradientUnits="userSpaceOnUse" gradientTransform="matrix(19.67,0,0,19.67,52.47,101.8)"><stop offset="0" style="stop-color:rgb(18,56,94);stop-opacity:1"/><stop offset="1" style="stop-color:rgb(32,84,128);stop-opacity:1"/></linearGradient>
        <linearGradient id="_Linear5" x1="0" y1="0" x2="1" y2="0" gradientUnits="userSpaceOnUse" gradientTransform="matrix(0,162.54,-162.54,0,72.07,20.36)"><stop offset="0" style="stop-color:rgb(49,130,201);stop-opacity:1"/><stop offset="1" style="stop-color:rgb(40,103,158);stop-opacity:1"/></linearGradient>
    </defs>
</svg>
